<svg xmlns="http://www.w3.org/2000/svg" xmlns:xlink="http://www.w3.org/1999/xlink" width="40" zoomAndPan="magnify" viewBox="0 0 375 374.999991" height="40" preserveAspectRatio="xMidYMid meet" version="1.0"><defs><clipPath id="id1"><path d="M 19.054688 29 L 355.804688 29 L 355.804688 365.5 L 19.054688 365.5 Z M 19.054688 29 " clip-rule="nonzero"/></clipPath><clipPath id="id2"><path d="M 88 9.25 L 109 9.25 L 109 69 L 88 69 Z M 88 9.25 " clip-rule="nonzero"/></clipPath><clipPath id="id3"><path d="M 266 9.25 L 287 9.25 L 287 69 L 266 69 Z M 266 9.25 " clip-rule="nonzero"/></clipPath></defs><g clip-path="url(#id1)"><path fill="#000000" d="M 306.210938 365.5 L 68.648438 365.5 C 67.027344 365.5 65.410156 365.417969 63.796875 365.257812 C 62.183594 365.097656 60.585938 364.855469 58.996094 364.539062 C 57.40625 364.222656 55.835938 363.828125 54.285156 363.355469 C 52.734375 362.886719 51.210938 362.339844 49.714844 361.71875 C 48.21875 361.097656 46.757812 360.40625 45.328125 359.640625 C 43.898438 358.875 42.511719 358.042969 41.164062 357.144531 C 39.816406 356.242188 38.515625 355.277344 37.265625 354.25 C 36.011719 353.222656 34.8125 352.136719 33.667969 350.992188 C 32.523438 349.84375 31.433594 348.644531 30.40625 347.394531 C 29.378906 346.140625 28.414062 344.84375 27.511719 343.496094 C 26.613281 342.148438 25.78125 340.761719 25.015625 339.332031 C 24.25 337.90625 23.558594 336.441406 22.9375 334.945312 C 22.316406 333.449219 21.769531 331.925781 21.296875 330.378906 C 20.828125 328.828125 20.433594 327.257812 20.113281 325.667969 C 19.796875 324.082031 19.558594 322.480469 19.398438 320.867188 C 19.238281 319.257812 19.15625 317.640625 19.152344 316.019531 L 19.152344 78.519531 C 19.15625 76.902344 19.238281 75.285156 19.398438 73.671875 C 19.558594 72.0625 19.796875 70.460938 20.113281 68.871094 C 20.433594 67.285156 20.828125 65.714844 21.296875 64.164062 C 21.769531 62.613281 22.316406 61.089844 22.9375 59.59375 C 23.558594 58.097656 24.25 56.636719 25.015625 55.207031 C 25.78125 53.78125 26.613281 52.394531 27.511719 51.046875 C 28.414062 49.699219 29.378906 48.398438 30.40625 47.148438 C 31.433594 45.894531 32.523438 44.695312 33.667969 43.550781 C 34.8125 42.40625 36.011719 41.320312 37.265625 40.292969 C 38.515625 39.261719 39.816406 38.300781 41.164062 37.398438 C 42.511719 36.5 43.898438 35.667969 45.328125 34.902344 C 46.757812 34.136719 48.21875 33.445312 49.714844 32.824219 C 51.210938 32.203125 52.734375 31.65625 54.285156 31.1875 C 55.835938 30.714844 57.40625 30.320312 58.996094 30.003906 C 60.585938 29.683594 62.183594 29.445312 63.796875 29.285156 C 65.410156 29.125 67.027344 29.042969 68.648438 29.042969 L 306.210938 29.042969 C 307.832031 29.042969 309.449219 29.125 311.0625 29.285156 C 312.671875 29.445312 314.273438 29.683594 315.863281 30.003906 C 317.453125 30.320312 319.019531 30.714844 320.570312 31.1875 C 322.121094 31.65625 323.644531 32.203125 325.140625 32.824219 C 326.640625 33.445312 328.101562 34.136719 329.53125 34.902344 C 330.960938 35.667969 332.347656 36.5 333.695312 37.398438 C 335.042969 38.300781 336.339844 39.261719 337.59375 40.292969 C 338.847656 41.320312 340.042969 42.40625 341.191406 43.550781 C 342.335938 44.695312 343.421875 45.894531 344.453125 47.148438 C 345.480469 48.398438 346.445312 49.699219 347.34375 51.046875 C 348.246094 52.394531 349.078125 53.78125 349.84375 55.207031 C 350.605469 56.636719 351.300781 58.097656 351.921875 59.59375 C 352.542969 61.089844 353.089844 62.613281 353.558594 64.164062 C 354.03125 65.714844 354.425781 67.285156 354.742188 68.871094 C 355.0625 70.460938 355.300781 72.0625 355.460938 73.671875 C 355.621094 75.285156 355.703125 76.902344 355.703125 78.519531 L 355.703125 316.019531 C 355.703125 317.640625 355.621094 319.257812 355.460938 320.867188 C 355.300781 322.480469 355.0625 324.082031 354.742188 325.667969 C 354.425781 327.257812 354.03125 328.828125 353.558594 330.378906 C 353.089844 331.925781 352.542969 333.449219 351.921875 334.945312 C 351.300781 336.441406 350.605469 337.90625 349.84375 339.332031 C 349.078125 340.761719 348.246094 342.148438 347.34375 343.496094 C 346.445312 344.84375 345.480469 346.140625 344.453125 347.394531 C 343.421875 348.644531 342.335938 349.84375 341.191406 350.992188 C 340.042969 352.136719 338.847656 353.222656 337.59375 354.25 C 336.339844 355.277344 335.042969 356.242188 333.695312 357.144531 C 332.347656 358.042969 330.960938 358.875 329.53125 359.640625 C 328.101562 360.40625 326.640625 361.097656 325.140625 361.71875 C 323.644531 362.339844 322.121094 362.886719 320.570312 363.355469 C 319.019531 363.828125 317.453125 364.222656 315.863281 364.539062 C 314.273438 364.855469 312.671875 365.097656 311.0625 365.257812 C 309.449219 365.417969 307.832031 365.5 306.210938 365.5 Z M 68.648438 48.832031 C 67.675781 48.832031 66.703125 48.882812 65.734375 48.976562 C 64.769531 49.070312 63.808594 49.214844 62.851562 49.402344 C 61.898438 49.59375 60.957031 49.828125 60.027344 50.113281 C 59.09375 50.394531 58.179688 50.722656 57.28125 51.09375 C 56.382812 51.464844 55.507812 51.878906 54.648438 52.339844 C 53.789062 52.796875 52.957031 53.296875 52.148438 53.835938 C 51.339844 54.378906 50.558594 54.957031 49.808594 55.574219 C 49.054688 56.1875 48.335938 56.839844 47.648438 57.527344 C 46.960938 58.214844 46.308594 58.9375 45.691406 59.6875 C 45.074219 60.4375 44.496094 61.21875 43.957031 62.027344 C 43.414062 62.835938 42.914062 63.667969 42.457031 64.527344 C 42 65.382812 41.582031 66.261719 41.210938 67.160156 C 40.839844 68.058594 40.511719 68.972656 40.230469 69.902344 C 39.949219 70.832031 39.710938 71.777344 39.523438 72.730469 C 39.332031 73.683594 39.1875 74.644531 39.09375 75.609375 C 39 76.578125 38.949219 77.546875 38.949219 78.519531 L 38.949219 316.019531 C 38.949219 316.992188 39 317.964844 39.09375 318.929688 C 39.1875 319.898438 39.332031 320.859375 39.523438 321.8125 C 39.710938 322.765625 39.949219 323.707031 40.230469 324.640625 C 40.511719 325.570312 40.839844 326.484375 41.210938 327.382812 C 41.582031 328.28125 42 329.15625 42.457031 330.015625 C 42.914062 330.875 43.414062 331.707031 43.957031 332.515625 C 44.496094 333.324219 45.074219 334.101562 45.691406 334.855469 C 46.308594 335.605469 46.960938 336.324219 47.648438 337.011719 C 48.335938 337.699219 49.054688 338.351562 49.808594 338.96875 C 50.558594 339.585938 51.339844 340.164062 52.148438 340.707031 C 52.957031 341.246094 53.789062 341.746094 54.648438 342.203125 C 55.503906 342.660156 56.382812 343.078125 57.28125 343.449219 C 58.179688 343.820312 59.09375 344.148438 60.027344 344.429688 C 60.957031 344.710938 61.898438 344.949219 62.851562 345.136719 C 63.808594 345.328125 64.769531 345.46875 65.734375 345.566406 C 66.703125 345.660156 67.675781 345.707031 68.648438 345.707031 L 306.210938 345.707031 C 307.183594 345.707031 308.152344 345.660156 309.121094 345.566406 C 310.089844 345.46875 311.050781 345.328125 312.003906 345.136719 C 312.957031 344.949219 313.902344 344.710938 314.832031 344.429688 C 315.761719 344.148438 316.675781 343.820312 317.574219 343.449219 C 318.472656 343.078125 319.351562 342.660156 320.210938 342.203125 C 321.066406 341.746094 321.902344 341.246094 322.710938 340.707031 C 323.519531 340.164062 324.296875 339.585938 325.050781 338.96875 C 325.800781 338.351562 326.523438 337.699219 327.210938 337.011719 C 327.898438 336.324219 328.550781 335.605469 329.167969 334.855469 C 329.785156 334.101562 330.363281 333.324219 330.902344 332.515625 C 331.441406 331.707031 331.941406 330.875 332.402344 330.015625 C 332.859375 329.15625 333.273438 328.28125 333.648438 327.382812 C 334.019531 326.484375 334.347656 325.570312 334.628906 324.640625 C 334.910156 323.707031 335.148438 322.765625 335.335938 321.8125 C 335.527344 320.859375 335.667969 319.898438 335.765625 318.929688 C 335.859375 317.964844 335.90625 316.992188 335.90625 316.019531 L 335.90625 78.519531 C 335.90625 77.546875 335.859375 76.578125 335.765625 75.609375 C 335.667969 74.644531 335.527344 73.683594 335.335938 72.730469 C 335.148438 71.777344 334.910156 70.832031 334.628906 69.902344 C 334.347656 68.972656 334.019531 68.058594 333.648438 67.160156 C 333.273438 66.261719 332.859375 65.382812 332.402344 64.527344 C 331.941406 63.667969 331.441406 62.835938 330.902344 62.027344 C 330.363281 61.21875 329.785156 60.4375 329.167969 59.6875 C 328.550781 58.9375 327.898438 58.214844 327.210938 57.527344 C 326.523438 56.839844 325.800781 56.1875 325.050781 55.574219 C 324.296875 54.957031 323.519531 54.378906 322.710938 53.835938 C 321.902344 53.296875 321.066406 52.796875 320.210938 52.339844 C 319.351562 51.878906 318.472656 51.464844 317.574219 51.09375 C 316.675781 50.722656 315.761719 50.394531 314.832031 50.113281 C 313.902344 49.828125 312.957031 49.59375 312.003906 49.402344 C 311.050781 49.214844 310.089844 49.070312 309.121094 48.976562 C 308.152344 48.882812 307.183594 48.832031 306.210938 48.832031 Z M 68.648438 48.832031 " fill-opacity="1" fill-rule="nonzero"/></g><g clip-path="url(#id2)"><path fill="#000000" d="M 98.34375 68.625 C 97.691406 68.625 97.046875 68.5625 96.410156 68.433594 C 95.773438 68.308594 95.15625 68.121094 94.554688 67.871094 C 93.953125 67.625 93.382812 67.320312 92.84375 66.957031 C 92.300781 66.597656 91.800781 66.1875 91.34375 65.726562 C 90.882812 65.265625 90.472656 64.765625 90.113281 64.226562 C 89.75 63.6875 89.445312 63.117188 89.195312 62.515625 C 88.949219 61.917969 88.761719 61.296875 88.632812 60.660156 C 88.507812 60.023438 88.445312 59.378906 88.445312 58.730469 L 88.445312 19.144531 C 88.445312 18.496094 88.507812 17.851562 88.632812 17.214844 C 88.761719 16.578125 88.949219 15.960938 89.195312 15.359375 C 89.445312 14.757812 89.75 14.1875 90.113281 13.648438 C 90.472656 13.109375 90.882812 12.609375 91.34375 12.148438 C 91.800781 11.6875 92.300781 11.277344 92.84375 10.917969 C 93.382812 10.558594 93.953125 10.253906 94.554688 10.003906 C 95.15625 9.753906 95.773438 9.566406 96.410156 9.441406 C 97.046875 9.3125 97.691406 9.25 98.34375 9.25 C 98.992188 9.25 99.636719 9.3125 100.273438 9.441406 C 100.910156 9.566406 101.53125 9.753906 102.128906 10.003906 C 102.730469 10.253906 103.300781 10.558594 103.839844 10.917969 C 104.382812 11.277344 104.882812 11.6875 105.339844 12.148438 C 105.800781 12.609375 106.210938 13.109375 106.574219 13.648438 C 106.933594 14.1875 107.238281 14.757812 107.488281 15.359375 C 107.734375 15.960938 107.921875 16.578125 108.050781 17.214844 C 108.175781 17.851562 108.242188 18.496094 108.242188 19.144531 L 108.242188 58.730469 C 108.242188 59.378906 108.175781 60.023438 108.050781 60.660156 C 107.921875 61.296875 107.734375 61.917969 107.488281 62.515625 C 107.238281 63.117188 106.933594 63.6875 106.574219 64.226562 C 106.210938 64.765625 105.800781 65.265625 105.339844 65.726562 C 104.882812 66.1875 104.382812 66.597656 103.839844 66.957031 C 103.300781 67.320312 102.730469 67.625 102.128906 67.871094 C 101.53125 68.121094 100.910156 68.308594 100.273438 68.433594 C 99.636719 68.5625 98.992188 68.625 98.34375 68.625 Z M 98.34375 68.625 " fill-opacity="1" fill-rule="nonzero"/></g><g clip-path="url(#id3)"><path fill="#000000" d="M 276.515625 68.625 C 275.867188 68.625 275.222656 68.5625 274.585938 68.433594 C 273.945312 68.308594 273.328125 68.121094 272.726562 67.871094 C 272.128906 67.625 271.558594 67.320312 271.015625 66.957031 C 270.476562 66.597656 269.976562 66.1875 269.515625 65.726562 C 269.058594 65.265625 268.648438 64.765625 268.285156 64.226562 C 267.925781 63.6875 267.621094 63.117188 267.371094 62.515625 C 267.121094 61.917969 266.933594 61.296875 266.808594 60.660156 C 266.679688 60.023438 266.617188 59.378906 266.617188 58.730469 L 266.617188 19.144531 C 266.617188 18.496094 266.679688 17.851562 266.808594 17.214844 C 266.933594 16.578125 267.121094 15.960938 267.371094 15.359375 C 267.621094 14.757812 267.925781 14.1875 268.285156 13.648438 C 268.648438 13.109375 269.058594 12.609375 269.515625 12.148438 C 269.976562 11.6875 270.476562 11.277344 271.015625 10.917969 C 271.558594 10.558594 272.128906 10.253906 272.726562 10.003906 C 273.328125 9.753906 273.945312 9.566406 274.585938 9.441406 C 275.222656 9.3125 275.867188 9.25 276.515625 9.25 C 277.164062 9.25 277.808594 9.3125 278.445312 9.441406 C 279.085938 9.566406 279.703125 9.753906 280.304688 10.003906 C 280.902344 10.253906 281.476562 10.558594 282.015625 10.917969 C 282.554688 11.277344 283.054688 11.6875 283.515625 12.148438 C 283.976562 12.609375 284.386719 13.109375 284.746094 13.648438 C 285.105469 14.1875 285.410156 14.757812 285.660156 15.359375 C 285.910156 15.960938 286.097656 16.578125 286.222656 17.214844 C 286.351562 17.851562 286.414062 18.496094 286.414062 19.144531 L 286.414062 58.730469 C 286.414062 59.378906 286.351562 60.023438 286.222656 60.660156 C 286.097656 61.296875 285.910156 61.917969 285.660156 62.515625 C 285.410156 63.117188 285.105469 63.6875 284.746094 64.226562 C 284.386719 64.765625 283.976562 65.265625 283.515625 65.726562 C 283.054688 66.1875 282.554688 66.597656 282.015625 66.957031 C 281.476562 67.320312 280.902344 67.625 280.304688 67.871094 C 279.703125 68.121094 279.085938 68.308594 278.445312 68.433594 C 277.808594 68.5625 277.164062 68.625 276.515625 68.625 Z M 276.515625 68.625 " fill-opacity="1" fill-rule="nonzero"/></g><path fill="#000000" d="M 335.90625 128 L 38.949219 128 C 38.300781 128 37.65625 127.9375 37.019531 127.808594 C 36.382812 127.683594 35.761719 127.496094 35.164062 127.246094 C 34.5625 127 33.992188 126.695312 33.453125 126.332031 C 32.910156 125.972656 32.410156 125.5625 31.953125 125.101562 C 31.492188 124.640625 31.082031 124.140625 30.71875 123.601562 C 30.359375 123.0625 30.054688 122.492188 29.804688 121.890625 C 29.558594 121.292969 29.371094 120.671875 29.242188 120.035156 C 29.117188 119.398438 29.050781 118.753906 29.050781 118.105469 C 29.050781 117.453125 29.117188 116.8125 29.242188 116.171875 C 29.371094 115.535156 29.558594 114.917969 29.804688 114.316406 C 30.054688 113.71875 30.359375 113.148438 30.71875 112.605469 C 31.082031 112.066406 31.492188 111.566406 31.953125 111.105469 C 32.410156 110.648438 32.910156 110.238281 33.453125 109.875 C 33.992188 109.515625 34.5625 109.210938 35.164062 108.960938 C 35.761719 108.714844 36.382812 108.527344 37.019531 108.398438 C 37.65625 108.273438 38.300781 108.207031 38.949219 108.207031 L 335.90625 108.207031 C 336.558594 108.207031 337.199219 108.273438 337.839844 108.398438 C 338.476562 108.527344 339.09375 108.714844 339.695312 108.960938 C 340.296875 109.210938 340.867188 109.515625 341.40625 109.875 C 341.945312 110.238281 342.445312 110.648438 342.90625 111.105469 C 343.367188 111.566406 343.777344 112.066406 344.136719 112.605469 C 344.5 113.148438 344.804688 113.71875 345.050781 114.316406 C 345.300781 114.917969 345.488281 115.535156 345.617188 116.171875 C 345.742188 116.8125 345.804688 117.453125 345.804688 118.105469 C 345.804688 118.753906 345.742188 119.398438 345.617188 120.035156 C 345.488281 120.671875 345.300781 121.292969 345.050781 121.890625 C 344.804688 122.492188 344.5 123.0625 344.136719 123.601562 C 343.777344 124.140625 343.367188 124.640625 342.90625 125.101562 C 342.445312 125.5625 341.945312 125.972656 341.40625 126.332031 C 340.867188 126.695312 340.296875 127 339.695312 127.246094 C 339.09375 127.496094 338.476562 127.683594 337.839844 127.808594 C 337.199219 127.9375 336.558594 128 335.90625 128 Z M 335.90625 128 " fill-opacity="1" fill-rule="nonzero"/><path fill="#000000" d="M 108.242188 177.480469 L 88.445312 177.480469 C 87.792969 177.480469 87.148438 177.414062 86.511719 177.289062 C 85.875 177.164062 85.257812 176.976562 84.65625 176.726562 C 84.054688 176.476562 83.484375 176.171875 82.945312 175.8125 C 82.402344 175.449219 81.902344 175.039062 81.445312 174.582031 C 80.984375 174.121094 80.574219 173.621094 80.214844 173.082031 C 79.851562 172.542969 79.546875 171.972656 79.296875 171.371094 C 79.050781 170.769531 78.863281 170.152344 78.734375 169.515625 C 78.609375 168.875 78.546875 168.234375 78.546875 167.582031 C 78.546875 166.933594 78.609375 166.289062 78.734375 165.652344 C 78.863281 165.015625 79.050781 164.398438 79.296875 163.796875 C 79.546875 163.195312 79.851562 162.625 80.214844 162.085938 C 80.574219 161.546875 80.984375 161.046875 81.445312 160.585938 C 81.902344 160.125 82.402344 159.714844 82.945312 159.355469 C 83.484375 158.996094 84.054688 158.691406 84.65625 158.441406 C 85.257812 158.191406 85.875 158.003906 86.511719 157.878906 C 87.148438 157.75 87.792969 157.6875 88.445312 157.6875 L 108.242188 157.6875 C 108.890625 157.6875 109.535156 157.75 110.171875 157.878906 C 110.808594 158.003906 111.429688 158.191406 112.027344 158.441406 C 112.628906 158.691406 113.199219 158.996094 113.738281 159.355469 C 114.28125 159.714844 114.78125 160.125 115.238281 160.585938 C 115.699219 161.046875 116.109375 161.546875 116.472656 162.085938 C 116.832031 162.625 117.136719 163.195312 117.386719 163.796875 C 117.632812 164.398438 117.820312 165.015625 117.949219 165.652344 C 118.074219 166.289062 118.140625 166.933594 118.140625 167.582031 C 118.140625 168.234375 118.074219 168.875 117.949219 169.515625 C 117.820312 170.152344 117.632812 170.769531 117.386719 171.371094 C 117.136719 171.972656 116.832031 172.542969 116.472656 173.082031 C 116.109375 173.621094 115.699219 174.121094 115.238281 174.582031 C 114.78125 175.039062 114.28125 175.449219 113.738281 175.8125 C 113.199219 176.171875 112.628906 176.476562 112.027344 176.726562 C 111.429688 176.976562 110.808594 177.164062 110.171875 177.289062 C 109.535156 177.414062 108.890625 177.480469 108.242188 177.480469 Z M 108.242188 177.480469 " fill-opacity="1" fill-rule="nonzero"/><path fill="#000000" d="M 197.328125 177.480469 L 177.53125 177.480469 C 176.878906 177.480469 176.238281 177.414062 175.597656 177.289062 C 174.960938 177.164062 174.34375 176.976562 173.742188 176.726562 C 173.140625 176.476562 172.570312 176.171875 172.03125 175.8125 C 171.492188 175.449219 170.992188 175.039062 170.53125 174.582031 C 170.070312 174.121094 169.660156 173.621094 169.300781 173.082031 C 168.9375 172.542969 168.632812 171.972656 168.386719 171.371094 C 168.136719 170.769531 167.949219 170.152344 167.820312 169.515625 C 167.695312 168.875 167.632812 168.234375 167.632812 167.582031 C 167.632812 166.933594 167.695312 166.289062 167.820312 165.652344 C 167.949219 165.015625 168.136719 164.398438 168.386719 163.796875 C 168.632812 163.195312 168.9375 162.625 169.300781 162.085938 C 169.660156 161.546875 170.070312 161.046875 170.53125 160.585938 C 170.992188 160.125 171.492188 159.714844 172.03125 159.355469 C 172.570312 158.996094 173.140625 158.691406 173.742188 158.441406 C 174.34375 158.191406 174.960938 158.003906 175.597656 157.878906 C 176.238281 157.75 176.878906 157.6875 177.53125 157.6875 L 197.328125 157.6875 C 197.976562 157.6875 198.621094 157.75 199.257812 157.878906 C 199.894531 158.003906 200.515625 158.191406 201.117188 158.441406 C 201.714844 158.691406 202.285156 158.996094 202.828125 159.355469 C 203.367188 159.714844 203.867188 160.125 204.328125 160.585938 C 204.785156 161.046875 205.195312 161.546875 205.558594 162.085938 C 205.917969 162.625 206.222656 163.195312 206.472656 163.796875 C 206.722656 164.398438 206.910156 165.015625 207.035156 165.652344 C 207.164062 166.289062 207.226562 166.933594 207.226562 167.582031 C 207.226562 168.234375 207.164062 168.875 207.035156 169.515625 C 206.910156 170.152344 206.722656 170.769531 206.472656 171.371094 C 206.222656 171.972656 205.917969 172.542969 205.558594 173.082031 C 205.195312 173.621094 204.785156 174.121094 204.328125 174.582031 C 203.867188 175.039062 203.367188 175.449219 202.828125 175.8125 C 202.285156 176.171875 201.714844 176.476562 201.117188 176.726562 C 200.515625 176.976562 199.894531 177.164062 199.257812 177.289062 C 198.621094 177.414062 197.976562 177.480469 197.328125 177.480469 Z M 197.328125 177.480469 " fill-opacity="1" fill-rule="nonzero"/><path fill="#000000" d="M 286.414062 177.480469 L 266.617188 177.480469 C 265.96875 177.480469 265.324219 177.414062 264.6875 177.289062 C 264.046875 177.164062 263.429688 176.976562 262.828125 176.726562 C 262.230469 176.476562 261.660156 176.171875 261.117188 175.8125 C 260.578125 175.449219 260.078125 175.039062 259.617188 174.582031 C 259.160156 174.121094 258.746094 173.621094 258.386719 173.082031 C 258.027344 172.542969 257.722656 171.972656 257.472656 171.371094 C 257.222656 170.769531 257.035156 170.152344 256.910156 169.515625 C 256.78125 168.875 256.71875 168.234375 256.71875 167.582031 C 256.71875 166.933594 256.78125 166.289062 256.910156 165.652344 C 257.035156 165.015625 257.222656 164.398438 257.472656 163.796875 C 257.722656 163.195312 258.027344 162.625 258.386719 162.085938 C 258.746094 161.546875 259.160156 161.046875 259.617188 160.585938 C 260.078125 160.125 260.578125 159.714844 261.117188 159.355469 C 261.660156 158.996094 262.230469 158.691406 262.828125 158.441406 C 263.429688 158.191406 264.046875 158.003906 264.6875 157.878906 C 265.324219 157.75 265.96875 157.6875 266.617188 157.6875 L 286.414062 157.6875 C 287.0625 157.6875 287.707031 157.75 288.34375 157.878906 C 288.984375 158.003906 289.601562 158.191406 290.203125 158.441406 C 290.804688 158.691406 291.375 158.996094 291.914062 159.355469 C 292.453125 159.714844 292.953125 160.125 293.414062 160.585938 C 293.875 161.046875 294.285156 161.546875 294.644531 162.085938 C 295.003906 162.625 295.3125 163.195312 295.558594 163.796875 C 295.808594 164.398438 295.996094 165.015625 296.121094 165.652344 C 296.25 166.289062 296.3125 166.933594 296.3125 167.582031 C 296.3125 168.234375 296.25 168.875 296.121094 169.515625 C 295.996094 170.152344 295.808594 170.769531 295.558594 171.371094 C 295.3125 171.972656 295.003906 172.542969 294.644531 173.082031 C 294.285156 173.621094 293.875 174.121094 293.414062 174.582031 C 292.953125 175.039062 292.453125 175.449219 291.914062 175.8125 C 291.375 176.171875 290.804688 176.476562 290.203125 176.726562 C 289.601562 176.976562 288.984375 177.164062 288.34375 177.289062 C 287.707031 177.414062 287.0625 177.480469 286.414062 177.480469 Z M 286.414062 177.480469 " fill-opacity="1" fill-rule="nonzero"/><path fill="#000000" d="M 108.242188 246.75 L 88.445312 246.75 C 87.792969 246.75 87.148438 246.6875 86.511719 246.558594 C 85.875 246.433594 85.257812 246.246094 84.65625 245.996094 C 84.054688 245.75 83.484375 245.445312 82.945312 245.082031 C 82.402344 244.722656 81.902344 244.3125 81.445312 243.851562 C 80.984375 243.390625 80.574219 242.890625 80.214844 242.351562 C 79.851562 241.8125 79.546875 241.242188 79.296875 240.640625 C 79.050781 240.039062 78.863281 239.421875 78.734375 238.785156 C 78.609375 238.148438 78.546875 237.503906 78.546875 236.855469 C 78.546875 236.203125 78.609375 235.5625 78.734375 234.921875 C 78.863281 234.285156 79.050781 233.667969 79.296875 233.066406 C 79.546875 232.46875 79.851562 231.898438 80.214844 231.355469 C 80.574219 230.816406 80.984375 230.316406 81.445312 229.855469 C 81.902344 229.398438 82.402344 228.988281 82.945312 228.625 C 83.484375 228.265625 84.054688 227.960938 84.65625 227.710938 C 85.257812 227.464844 85.875 227.277344 86.511719 227.148438 C 87.148438 227.023438 87.792969 226.957031 88.445312 226.957031 L 108.242188 226.957031 C 108.890625 226.957031 109.535156 227.023438 110.171875 227.148438 C 110.808594 227.277344 111.429688 227.464844 112.027344 227.710938 C 112.628906 227.960938 113.199219 228.265625 113.738281 228.625 C 114.28125 228.988281 114.78125 229.398438 115.238281 229.855469 C 115.699219 230.316406 116.109375 230.816406 116.472656 231.355469 C 116.832031 231.898438 117.136719 232.46875 117.386719 233.066406 C 117.632812 233.667969 117.820312 234.285156 117.949219 234.921875 C 118.074219 235.5625 118.140625 236.203125 118.140625 236.855469 C 118.140625 237.503906 118.074219 238.148438 117.949219 238.785156 C 117.820312 239.421875 117.632812 240.039062 117.386719 240.640625 C 117.136719 241.242188 116.832031 241.8125 116.472656 242.351562 C 116.109375 242.890625 115.699219 243.390625 115.238281 243.851562 C 114.78125 244.3125 114.28125 244.722656 113.738281 245.082031 C 113.199219 245.445312 112.628906 245.75 112.027344 245.996094 C 111.429688 246.246094 110.808594 246.433594 110.171875 246.558594 C 109.535156 246.6875 108.890625 246.75 108.242188 246.75 Z M 108.242188 246.75 " fill-opacity="1" fill-rule="nonzero"/><path fill="#000000" d="M 197.328125 246.75 L 177.53125 246.75 C 176.878906 246.75 176.238281 246.6875 175.597656 246.558594 C 174.960938 246.433594 174.34375 246.246094 173.742188 245.996094 C 173.140625 245.75 172.570312 245.445312 172.03125 245.082031 C 171.492188 244.722656 170.992188 244.3125 170.53125 243.851562 C 170.070312 243.390625 169.660156 242.890625 169.300781 242.351562 C 168.9375 241.8125 168.632812 241.242188 168.386719 240.640625 C 168.136719 240.039062 167.949219 239.421875 167.820312 238.785156 C 167.695312 238.148438 167.632812 237.503906 167.632812 236.855469 C 167.632812 236.203125 167.695312 235.5625 167.820312 234.921875 C 167.949219 234.285156 168.136719 233.667969 168.386719 233.066406 C 168.632812 232.46875 168.9375 231.898438 169.300781 231.355469 C 169.660156 230.816406 170.070312 230.316406 170.53125 229.855469 C 170.992188 229.398438 171.492188 228.988281 172.03125 228.625 C 172.570312 228.265625 173.140625 227.960938 173.742188 227.710938 C 174.34375 227.464844 174.960938 227.277344 175.597656 227.148438 C 176.238281 227.023438 176.878906 226.957031 177.53125 226.957031 L 197.328125 226.957031 C 197.976562 226.957031 198.621094 227.023438 199.257812 227.148438 C 199.894531 227.277344 200.515625 227.464844 201.117188 227.710938 C 201.714844 227.960938 202.285156 228.265625 202.828125 228.625 C 203.367188 228.988281 203.867188 229.398438 204.328125 229.855469 C 204.785156 230.316406 205.195312 230.816406 205.558594 231.355469 C 205.917969 231.898438 206.222656 232.46875 206.472656 233.066406 C 206.722656 233.667969 206.910156 234.285156 207.035156 234.921875 C 207.164062 235.5625 207.226562 236.203125 207.226562 236.855469 C 207.226562 237.503906 207.164062 238.148438 207.035156 238.785156 C 206.910156 239.421875 206.722656 240.039062 206.472656 240.640625 C 206.222656 241.242188 205.917969 241.8125 205.558594 242.351562 C 205.195312 242.890625 204.785156 243.390625 204.328125 243.851562 C 203.867188 244.3125 203.367188 244.722656 202.828125 245.082031 C 202.285156 245.445312 201.714844 245.75 201.117188 245.996094 C 200.515625 246.246094 199.894531 246.433594 199.257812 246.558594 C 198.621094 246.6875 197.976562 246.75 197.328125 246.75 Z M 197.328125 246.75 " fill-opacity="1" fill-rule="nonzero"/><path fill="#000000" d="M 286.414062 246.75 L 266.617188 246.75 C 265.96875 246.75 265.324219 246.6875 264.6875 246.558594 C 264.046875 246.433594 263.429688 246.246094 262.828125 245.996094 C 262.230469 245.75 261.660156 245.445312 261.117188 245.082031 C 260.578125 244.722656 260.078125 244.3125 259.617188 243.851562 C 259.160156 243.390625 258.746094 242.890625 258.386719 242.351562 C 258.027344 241.8125 257.722656 241.242188 257.472656 240.640625 C 257.222656 240.039062 257.035156 239.421875 256.910156 238.785156 C 256.78125 238.148438 256.71875 237.503906 256.71875 236.855469 C 256.71875 236.203125 256.78125 235.5625 256.910156 234.921875 C 257.035156 234.285156 257.222656 233.667969 257.472656 233.066406 C 257.722656 232.46875 258.027344 231.898438 258.386719 231.355469 C 258.746094 230.816406 259.160156 230.316406 259.617188 229.855469 C 260.078125 229.398438 260.578125 228.988281 261.117188 228.625 C 261.660156 228.265625 262.230469 227.960938 262.828125 227.710938 C 263.429688 227.464844 264.046875 227.277344 264.6875 227.148438 C 265.324219 227.023438 265.96875 226.957031 266.617188 226.957031 L 286.414062 226.957031 C 287.0625 226.957031 287.707031 227.023438 288.34375 227.148438 C 288.984375 227.277344 289.601562 227.464844 290.203125 227.710938 C 290.804688 227.960938 291.375 228.265625 291.914062 228.625 C 292.453125 228.988281 292.953125 229.398438 293.414062 229.855469 C 293.875 230.316406 294.285156 230.816406 294.644531 231.355469 C 295.003906 231.898438 295.3125 232.46875 295.558594 233.066406 C 295.808594 233.667969 295.996094 234.285156 296.121094 234.921875 C 296.25 235.5625 296.3125 236.203125 296.3125 236.855469 C 296.3125 237.503906 296.25 238.148438 296.121094 238.785156 C 295.996094 239.421875 295.808594 240.039062 295.558594 240.640625 C 295.3125 241.242188 295.003906 241.8125 294.644531 242.351562 C 294.285156 242.890625 293.875 243.390625 293.414062 243.851562 C 292.953125 244.3125 292.453125 244.722656 291.914062 245.082031 C 291.375 245.445312 290.804688 245.75 290.203125 245.996094 C 289.601562 246.246094 288.984375 246.433594 288.34375 246.558594 C 287.707031 246.6875 287.0625 246.75 286.414062 246.75 Z M 286.414062 246.75 " fill-opacity="1" fill-rule="nonzero"/><path fill="#000000" d="M 108.242188 316.019531 L 88.445312 316.019531 C 87.792969 316.019531 87.148438 315.957031 86.511719 315.832031 C 85.875 315.703125 85.257812 315.515625 84.65625 315.269531 C 84.054688 315.019531 83.484375 314.714844 82.945312 314.351562 C 82.402344 313.992188 81.902344 313.582031 81.445312 313.121094 C 80.984375 312.664062 80.574219 312.164062 80.214844 311.621094 C 79.851562 311.082031 79.546875 310.511719 79.296875 309.914062 C 79.050781 309.3125 78.863281 308.691406 78.734375 308.054688 C 78.609375 307.417969 78.546875 306.773438 78.546875 306.125 C 78.546875 305.476562 78.609375 304.832031 78.734375 304.195312 C 78.863281 303.558594 79.050781 302.9375 79.296875 302.339844 C 79.546875 301.738281 79.851562 301.167969 80.214844 300.628906 C 80.574219 300.085938 80.984375 299.585938 81.445312 299.128906 C 81.902344 298.667969 82.402344 298.257812 82.945312 297.898438 C 83.484375 297.535156 84.054688 297.230469 84.65625 296.984375 C 85.257812 296.734375 85.875 296.546875 86.511719 296.417969 C 87.148438 296.292969 87.792969 296.230469 88.445312 296.230469 L 108.242188 296.230469 C 108.890625 296.230469 109.535156 296.292969 110.171875 296.417969 C 110.808594 296.546875 111.429688 296.734375 112.027344 296.984375 C 112.628906 297.230469 113.199219 297.535156 113.738281 297.898438 C 114.28125 298.257812 114.78125 298.667969 115.238281 299.128906 C 115.699219 299.585938 116.109375 300.085938 116.472656 300.628906 C 116.832031 301.167969 117.136719 301.738281 117.386719 302.339844 C 117.632812 302.9375 117.820312 303.558594 117.949219 304.195312 C 118.074219 304.832031 118.140625 305.476562 118.140625 306.125 C 118.140625 306.773438 118.074219 307.417969 117.949219 308.054688 C 117.820312 308.691406 117.632812 309.3125 117.386719 309.914062 C 117.136719 310.511719 116.832031 311.082031 116.472656 311.621094 C 116.109375 312.164062 115.699219 312.664062 115.238281 313.121094 C 114.78125 313.582031 114.28125 313.992188 113.738281 314.351562 C 113.199219 314.714844 112.628906 315.019531 112.027344 315.269531 C 111.429688 315.515625 110.808594 315.703125 110.171875 315.832031 C 109.535156 315.957031 108.890625 316.019531 108.242188 316.019531 Z M 108.242188 316.019531 " fill-opacity="1" fill-rule="nonzero"/><path fill="#000000" d="M 197.328125 316.019531 L 177.53125 316.019531 C 176.878906 316.019531 176.238281 315.957031 175.597656 315.832031 C 174.960938 315.703125 174.34375 315.515625 173.742188 315.269531 C 173.140625 315.019531 172.570312 314.714844 172.03125 314.351562 C 171.492188 313.992188 170.992188 313.582031 170.53125 313.121094 C 170.070312 312.664062 169.660156 312.164062 169.300781 311.621094 C 168.9375 311.082031 168.632812 310.511719 168.386719 309.914062 C 168.136719 309.3125 167.949219 308.691406 167.820312 308.054688 C 167.695312 307.417969 167.632812 306.773438 167.632812 306.125 C 167.632812 305.476562 167.695312 304.832031 167.820312 304.195312 C 167.949219 303.558594 168.136719 302.9375 168.386719 302.339844 C 168.632812 301.738281 168.9375 301.167969 169.300781 300.628906 C 169.660156 300.085938 170.070312 299.585938 170.53125 299.128906 C 170.992188 298.667969 171.492188 298.257812 172.03125 297.898438 C 172.570312 297.535156 173.140625 297.230469 173.742188 296.984375 C 174.34375 296.734375 174.960938 296.546875 175.597656 296.417969 C 176.238281 296.292969 176.878906 296.230469 177.53125 296.230469 L 197.328125 296.230469 C 197.976562 296.230469 198.621094 296.292969 199.257812 296.417969 C 199.894531 296.546875 200.515625 296.734375 201.117188 296.984375 C 201.714844 297.230469 202.285156 297.535156 202.828125 297.898438 C 203.367188 298.257812 203.867188 298.667969 204.328125 299.128906 C 204.785156 299.585938 205.195312 300.085938 205.558594 300.628906 C 205.917969 301.167969 206.222656 301.738281 206.472656 302.339844 C 206.722656 302.9375 206.910156 303.558594 207.035156 304.195312 C 207.164062 304.832031 207.226562 305.476562 207.226562 306.125 C 207.226562 306.773438 207.164062 307.417969 207.035156 308.054688 C 206.910156 308.691406 206.722656 309.3125 206.472656 309.914062 C 206.222656 310.511719 205.917969 311.082031 205.558594 311.621094 C 205.195312 312.164062 204.785156 312.664062 204.328125 313.121094 C 203.867188 313.582031 203.367188 313.992188 202.828125 314.351562 C 202.285156 314.714844 201.714844 315.019531 201.117188 315.269531 C 200.515625 315.515625 199.894531 315.703125 199.257812 315.832031 C 198.621094 315.957031 197.976562 316.019531 197.328125 316.019531 Z M 197.328125 316.019531 " fill-opacity="1" fill-rule="nonzero"/><path fill="#000000" d="M 286.414062 316.019531 L 266.617188 316.019531 C 265.96875 316.019531 265.324219 315.957031 264.6875 315.832031 C 264.046875 315.703125 263.429688 315.515625 262.828125 315.269531 C 262.230469 315.019531 261.660156 314.714844 261.117188 314.351562 C 260.578125 313.992188 260.078125 313.582031 259.617188 313.121094 C 259.160156 312.664062 258.746094 312.164062 258.386719 311.621094 C 258.027344 311.082031 257.722656 310.511719 257.472656 309.914062 C 257.222656 309.3125 257.035156 308.691406 256.910156 308.054688 C 256.78125 307.417969 256.71875 306.773438 256.71875 306.125 C 256.71875 305.476562 256.78125 304.832031 256.910156 304.195312 C 257.035156 303.558594 257.222656 302.9375 257.472656 302.339844 C 257.722656 301.738281 258.027344 301.167969 258.386719 300.628906 C 258.746094 300.085938 259.160156 299.585938 259.617188 299.128906 C 260.078125 298.667969 260.578125 298.257812 261.117188 297.898438 C 261.660156 297.535156 262.230469 297.230469 262.828125 296.984375 C 263.429688 296.734375 264.046875 296.546875 264.6875 296.417969 C 265.324219 296.292969 265.96875 296.230469 266.617188 296.230469 L 286.414062 296.230469 C 287.0625 296.230469 287.707031 296.292969 288.34375 296.417969 C 288.984375 296.546875 289.601562 296.734375 290.203125 296.984375 C 290.804688 297.230469 291.375 297.535156 291.914062 297.898438 C 292.453125 298.257812 292.953125 298.667969 293.414062 299.128906 C 293.875 299.585938 294.285156 300.085938 294.644531 300.628906 C 295.003906 301.167969 295.3125 301.738281 295.558594 302.339844 C 295.808594 302.9375 295.996094 303.558594 296.121094 304.195312 C 296.25 304.832031 296.3125 305.476562 296.3125 306.125 C 296.3125 306.773438 296.25 307.417969 296.121094 308.054688 C 295.996094 308.691406 295.808594 309.3125 295.558594 309.914062 C 295.3125 310.511719 295.003906 311.082031 294.644531 311.621094 C 294.285156 312.164062 293.875 312.664062 293.414062 313.121094 C 292.953125 313.582031 292.453125 313.992188 291.914062 314.351562 C 291.375 314.714844 290.804688 315.019531 290.203125 315.269531 C 289.601562 315.515625 288.984375 315.703125 288.34375 315.832031 C 287.707031 315.957031 287.0625 316.019531 286.414062 316.019531 Z M 286.414062 316.019531 " fill-opacity="1" fill-rule="nonzero"/></svg>