<svg xmlns="http://www.w3.org/2000/svg" xmlns:xlink="http://www.w3.org/1999/xlink" width="50" zoomAndPan="magnify" viewBox="0 0 375 374.999991" height="50" preserveAspectRatio="xMidYMid meet" version="1.0"><defs><clipPath id="id1"><path d="M 17.128906 40.128906 L 357.628906 40.128906 L 357.628906 334.878906 L 17.128906 334.878906 Z M 17.128906 40.128906 " clip-rule="nonzero"/></clipPath></defs><g clip-path="url(#id1)"><path fill="#231f20" d="M 258.726562 327.078125 C 208.488281 327.078125 167.621094 286.179688 167.621094 235.90625 C 167.621094 185.636719 208.488281 144.738281 258.726562 144.738281 C 308.957031 144.738281 349.828125 185.636719 349.828125 235.90625 C 349.828125 286.179688 308.957031 327.078125 258.726562 327.078125 Z M 32.53125 271.832031 C 28.855469 271.832031 25.867188 268.835938 25.867188 265.15625 L 25.867188 94.035156 L 272.851562 94.035156 L 272.851562 137.941406 C 268.234375 137.277344 263.519531 136.929688 258.726562 136.929688 C 218.617188 136.929688 184.011719 160.941406 168.503906 195.355469 L 160.625 195.355469 L 160.625 203.164062 L 165.386719 203.164062 C 161.785156 213.421875 159.816406 224.4375 159.816406 235.90625 C 159.816406 248.574219 162.207031 260.6875 166.5625 271.832031 Z M 32.53125 57.285156 L 41.976562 57.285156 L 41.976562 65.789062 L 49.785156 65.789062 L 49.785156 57.285156 L 67.847656 57.285156 L 67.847656 65.789062 L 75.652344 65.789062 L 75.652344 57.285156 L 93.71875 57.285156 L 93.71875 65.789062 L 101.523438 65.789062 L 101.523438 57.285156 L 119.585938 57.285156 L 119.585938 65.789062 L 127.390625 65.789062 L 127.390625 57.285156 L 145.453125 57.285156 L 145.453125 65.789062 L 153.261719 65.789062 L 153.261719 57.285156 L 171.324219 57.285156 L 171.324219 65.789062 L 179.128906 65.789062 L 179.128906 57.285156 L 197.191406 57.285156 L 197.191406 65.789062 L 204.996094 65.789062 L 204.996094 57.285156 L 223.0625 57.285156 L 223.0625 65.789062 L 230.867188 65.789062 L 230.867188 57.285156 L 248.925781 57.285156 L 248.925781 65.789062 L 256.734375 65.789062 L 256.734375 57.285156 L 266.183594 57.285156 C 269.859375 57.285156 272.851562 60.277344 272.851562 63.957031 L 272.851562 86.847656 L 25.867188 86.847656 L 25.867188 63.957031 C 25.867188 60.277344 28.855469 57.285156 32.53125 57.285156 Z M 281.523438 139.582031 L 281.523438 63.957031 C 281.523438 55.492188 274.640625 48.605469 266.183594 48.605469 L 256.734375 48.605469 L 256.734375 40.101562 L 248.925781 40.101562 L 248.925781 48.605469 L 230.867188 48.605469 L 230.867188 40.101562 L 223.0625 40.101562 L 223.0625 48.605469 L 204.996094 48.605469 L 204.996094 40.101562 L 197.191406 40.101562 L 197.191406 48.605469 L 179.128906 48.605469 L 179.128906 40.101562 L 171.324219 40.101562 L 171.324219 48.605469 L 153.261719 48.605469 L 153.261719 40.101562 L 145.453125 40.101562 L 145.453125 48.605469 L 127.390625 48.605469 L 127.390625 40.101562 L 119.585938 40.101562 L 119.585938 48.605469 L 101.523438 48.605469 L 101.523438 40.101562 L 93.71875 40.101562 L 93.71875 48.605469 L 75.652344 48.605469 L 75.652344 40.101562 L 67.847656 40.101562 L 67.847656 48.605469 L 49.785156 48.605469 L 49.785156 40.101562 L 41.976562 40.101562 L 41.976562 48.605469 L 32.53125 48.605469 C 24.074219 48.605469 17.191406 55.492188 17.191406 63.957031 L 17.191406 265.15625 C 17.191406 273.621094 24.074219 280.511719 32.53125 280.511719 L 170.445312 280.511719 C 186.769531 312.742188 220.210938 334.886719 258.726562 334.886719 C 313.265625 334.886719 357.636719 290.484375 357.636719 235.90625 C 357.636719 189.175781 325.109375 149.914062 281.523438 139.582031 " fill-opacity="1" fill-rule="nonzero"/></g><path fill="#231f20" d="M 258.726562 161.371094 C 259.957031 161.371094 260.953125 160.375 260.953125 159.144531 L 260.953125 153.710938 C 260.953125 152.480469 259.957031 151.480469 258.726562 151.480469 C 257.496094 151.480469 256.5 152.480469 256.5 153.710938 L 256.5 159.144531 C 256.5 160.375 257.496094 161.371094 258.726562 161.371094 " fill-opacity="1" fill-rule="nonzero"/><path fill="#231f20" d="M 258.726562 310.445312 C 257.496094 310.445312 256.5 311.441406 256.5 312.671875 L 256.5 318.105469 C 256.5 319.335938 257.496094 320.332031 258.726562 320.332031 C 259.957031 320.332031 260.953125 319.335938 260.953125 318.105469 L 260.953125 312.671875 C 260.953125 311.441406 259.957031 310.445312 258.726562 310.445312 " fill-opacity="1" fill-rule="nonzero"/><path fill="#231f20" d="M 340.863281 233.679688 L 335.429688 233.679688 C 334.199219 233.679688 333.203125 234.675781 333.203125 235.90625 C 333.203125 237.136719 334.199219 238.132812 335.429688 238.132812 L 340.863281 238.132812 C 342.089844 238.132812 343.089844 237.136719 343.089844 235.90625 C 343.089844 234.675781 342.089844 233.679688 340.863281 233.679688 " fill-opacity="1" fill-rule="nonzero"/><path fill="#231f20" d="M 182.019531 233.679688 L 176.585938 233.679688 C 175.355469 233.679688 174.359375 234.675781 174.359375 235.90625 C 174.359375 237.136719 175.355469 238.132812 176.585938 238.132812 L 182.019531 238.132812 C 183.25 238.132812 184.246094 237.136719 184.246094 235.90625 C 184.246094 234.675781 183.25 233.679688 182.019531 233.679688 " fill-opacity="1" fill-rule="nonzero"/><path fill="#231f20" d="M 329.324219 277.9375 L 324.703125 275.085938 C 324.105469 274.714844 323.324219 274.902344 322.953125 275.5 C 322.582031 276.097656 322.769531 276.882812 323.367188 277.25 L 327.992188 280.101562 C 328.199219 280.230469 328.429688 280.292969 328.660156 280.292969 C 329.085938 280.292969 329.503906 280.074219 329.742188 279.6875 C 330.113281 279.089844 329.925781 278.304688 329.324219 277.9375 " fill-opacity="1" fill-rule="nonzero"/><path fill="#231f20" d="M 194.082031 194.5625 L 189.457031 191.714844 C 188.859375 191.34375 188.074219 191.53125 187.707031 192.125 C 187.339844 192.726562 187.527344 193.511719 188.125 193.878906 L 192.746094 196.730469 C 192.957031 196.859375 193.1875 196.921875 193.414062 196.921875 C 193.839844 196.921875 194.257812 196.703125 194.496094 196.3125 C 194.867188 195.714844 194.679688 194.929688 194.082031 194.5625 " fill-opacity="1" fill-rule="nonzero"/><path fill="#231f20" d="M 296.597656 302.671875 C 296.261719 302.054688 295.492188 301.828125 294.871094 302.167969 C 294.253906 302.503906 294.027344 303.277344 294.367188 303.894531 L 296.96875 308.664062 C 297.199219 309.085938 297.636719 309.328125 298.085938 309.328125 C 298.289062 309.328125 298.5 309.277344 298.691406 309.171875 C 299.308594 308.832031 299.539062 308.058594 299.199219 307.441406 L 296.597656 302.671875 " fill-opacity="1" fill-rule="nonzero"/><path fill="#231f20" d="M 220.484375 163.148438 C 220.148438 162.53125 219.371094 162.308594 218.753906 162.644531 C 218.136719 162.980469 217.910156 163.753906 218.25 164.371094 L 220.851562 169.140625 C 221.082031 169.5625 221.519531 169.804688 221.96875 169.804688 C 222.175781 169.804688 222.382812 169.753906 222.578125 169.648438 C 223.191406 169.3125 223.421875 168.539062 223.085938 167.921875 L 220.484375 163.148438 " fill-opacity="1" fill-rule="nonzero"/><path fill="#231f20" d="M 192.746094 275.085938 L 188.125 277.9375 C 187.527344 278.304688 187.339844 279.089844 187.707031 279.6875 C 187.949219 280.074219 188.367188 280.292969 188.792969 280.292969 C 189.019531 280.292969 189.25 280.230469 189.457031 280.101562 L 194.082031 277.25 C 194.679688 276.886719 194.867188 276.097656 194.496094 275.503906 C 194.128906 274.902344 193.347656 274.714844 192.746094 275.085938 " fill-opacity="1" fill-rule="nonzero"/><path fill="#231f20" d="M 327.992188 191.714844 L 323.367188 194.5625 C 322.769531 194.929688 322.582031 195.714844 322.953125 196.3125 C 323.195312 196.703125 323.609375 196.921875 324.039062 196.921875 C 324.265625 196.921875 324.496094 196.859375 324.703125 196.730469 L 329.324219 193.878906 C 329.925781 193.511719 330.113281 192.726562 329.742188 192.125 C 329.375 191.53125 328.589844 191.34375 327.992188 191.714844 " fill-opacity="1" fill-rule="nonzero"/><path fill="#231f20" d="M 222.578125 302.167969 C 221.960938 301.828125 221.1875 302.054688 220.851562 302.671875 L 218.25 307.441406 C 217.910156 308.058594 218.136719 308.832031 218.753906 309.171875 C 218.953125 309.277344 219.160156 309.328125 219.363281 309.328125 C 219.816406 309.328125 220.253906 309.085938 220.484375 308.664062 L 223.085938 303.894531 C 223.421875 303.277344 223.191406 302.503906 222.578125 302.167969 " fill-opacity="1" fill-rule="nonzero"/><path fill="#231f20" d="M 298.691406 162.644531 C 298.074219 162.308594 297.304688 162.53125 296.96875 163.152344 L 294.367188 167.921875 C 294.027344 168.539062 294.253906 169.3125 294.871094 169.648438 C 295.066406 169.753906 295.273438 169.804688 295.480469 169.804688 C 295.929688 169.804688 296.367188 169.5625 296.597656 169.140625 L 299.199219 164.371094 C 299.539062 163.753906 299.308594 162.980469 298.691406 162.644531 " fill-opacity="1" fill-rule="nonzero"/><path fill="#231f20" d="M 296.746094 212.339844 L 294.21875 208.671875 L 262.085938 230.875 C 261.09375 230.3125 259.949219 229.984375 258.726562 229.984375 C 258.460938 229.984375 258.203125 230 257.949219 230.03125 L 227.839844 177.003906 L 223.964844 179.203125 L 253.925781 231.96875 C 252.6875 233.199219 251.917969 234.90625 251.917969 236.792969 C 251.917969 240.554688 254.96875 243.601562 258.726562 243.601562 C 262.484375 243.601562 265.53125 240.554688 265.53125 236.792969 C 265.53125 235.894531 265.351562 235.039062 265.039062 234.253906 L 296.746094 212.339844 " fill-opacity="1" fill-rule="nonzero"/><path fill="#231f20" d="M 55.066406 164.042969 L 76.460938 164.042969 L 76.460938 156.234375 L 55.066406 156.234375 L 55.066406 164.042969 " fill-opacity="1" fill-rule="nonzero"/><path fill="#231f20" d="M 108.445312 164.042969 L 129.839844 164.042969 L 129.839844 156.234375 L 108.445312 156.234375 L 108.445312 164.042969 " fill-opacity="1" fill-rule="nonzero"/><path fill="#231f20" d="M 183.21875 156.234375 L 161.824219 156.234375 L 161.824219 164.042969 L 183.21875 164.042969 L 183.21875 156.234375 " fill-opacity="1" fill-rule="nonzero"/><path fill="#231f20" d="M 55.066406 124.96875 L 76.460938 124.96875 L 76.460938 117.15625 L 55.066406 117.15625 L 55.066406 124.96875 " fill-opacity="1" fill-rule="nonzero"/><path fill="#231f20" d="M 108.445312 124.96875 L 129.839844 124.96875 L 129.839844 117.15625 L 108.445312 117.15625 L 108.445312 124.96875 " fill-opacity="1" fill-rule="nonzero"/><path fill="#231f20" d="M 183.21875 117.15625 L 161.824219 117.15625 L 161.824219 124.96875 L 183.21875 124.96875 L 183.21875 117.15625 " fill-opacity="1" fill-rule="nonzero"/><path fill="#231f20" d="M 55.066406 242.246094 L 76.460938 242.246094 L 76.460938 234.433594 L 55.066406 234.433594 L 55.066406 242.246094 " fill-opacity="1" fill-rule="nonzero"/><path fill="#231f20" d="M 108.445312 242.246094 L 129.839844 242.246094 L 129.839844 234.433594 L 108.445312 234.433594 L 108.445312 242.246094 " fill-opacity="1" fill-rule="nonzero"/><path fill="#231f20" d="M 55.066406 203.164062 L 76.460938 203.164062 L 76.460938 195.355469 L 55.066406 195.355469 L 55.066406 203.164062 " fill-opacity="1" fill-rule="nonzero"/><path fill="#231f20" d="M 108.445312 203.164062 L 129.839844 203.164062 L 129.839844 195.355469 L 108.445312 195.355469 L 108.445312 203.164062 " fill-opacity="1" fill-rule="nonzero"/><path fill="#231f20" d="M 236.597656 117.15625 L 215.203125 117.15625 L 215.203125 124.96875 L 236.597656 124.96875 L 236.597656 117.15625 " fill-opacity="1" fill-rule="nonzero"/></svg>