<svg xmlns="http://www.w3.org/2000/svg" xmlns:xlink="http://www.w3.org/1999/xlink" width="40" zoomAndPan="magnify" viewBox="0 0 375 374.999991" height="40" preserveAspectRatio="xMidYMid meet" version="1.0"><defs><clipPath id="id1"><path d="M 10.136719 12.132812 L 364 12.132812 L 364 363 L 10.136719 363 Z M 10.136719 12.132812 " clip-rule="nonzero"/></clipPath></defs><path fill="#100f0d" d="M 175.84375 76.554688 C 172.679688 76.554688 170.097656 73.964844 170.097656 70.800781 L 170.097656 50.9375 C 170.097656 47.769531 172.679688 45.183594 175.84375 45.183594 C 179.007812 45.183594 181.589844 47.769531 181.589844 50.9375 L 181.589844 70.800781 C 181.589844 73.964844 179.007812 76.554688 175.84375 76.554688 " fill-opacity="1" fill-rule="nonzero"/><path fill="#100f0d" d="M 259.210938 126.128906 C 257.628906 123.390625 258.578125 119.855469 261.3125 118.273438 L 278.511719 108.339844 C 281.246094 106.757812 284.777344 107.707031 286.359375 110.445312 C 287.941406 113.183594 286.996094 116.71875 284.257812 118.300781 L 267.0625 128.234375 C 264.324219 129.816406 260.792969 128.867188 259.210938 126.128906 " fill-opacity="1" fill-rule="nonzero"/><path fill="#100f0d" d="M 224.648438 89.640625 C 221.910156 88.058594 220.960938 84.523438 222.542969 81.785156 L 232.472656 64.574219 C 234.050781 61.835938 237.582031 60.890625 240.320312 62.472656 C 243.058594 64.054688 244.003906 67.585938 242.425781 70.328125 L 232.496094 87.535156 C 230.914062 90.273438 227.382812 91.222656 224.648438 89.640625 " fill-opacity="1" fill-rule="nonzero"/><path fill="#100f0d" d="M 304.902344 174.328125 C 304.902344 177.492188 302.320312 180.078125 299.15625 180.078125 L 279.300781 180.078125 C 276.136719 180.078125 273.554688 177.492188 273.554688 174.328125 C 273.554688 171.164062 276.136719 168.574219 279.300781 168.574219 L 299.15625 168.574219 C 302.320312 168.574219 304.902344 171.164062 304.902344 174.328125 " fill-opacity="1" fill-rule="nonzero"/><path fill="#100f0d" d="M 224.007812 257.75 C 226.746094 256.167969 230.28125 257.113281 231.863281 259.855469 L 241.789062 277.0625 C 243.367188 279.800781 242.425781 283.335938 239.683594 284.917969 C 236.945312 286.5 233.414062 285.550781 231.832031 282.8125 L 221.90625 265.605469 C 220.328125 262.867188 221.269531 259.332031 224.007812 257.75 " fill-opacity="1" fill-rule="nonzero"/><path fill="#100f0d" d="M 260.476562 223.164062 C 262.054688 220.421875 265.585938 219.476562 268.328125 221.058594 L 285.519531 230.992188 C 288.257812 232.574219 289.207031 236.109375 287.625 238.847656 C 286.046875 241.585938 282.511719 242.535156 279.773438 240.953125 L 262.582031 231.019531 C 259.839844 229.4375 258.898438 225.902344 260.476562 223.164062 " fill-opacity="1" fill-rule="nonzero"/><path fill="#100f0d" d="M 175.84375 303.472656 C 172.679688 303.472656 170.097656 300.886719 170.097656 297.722656 L 170.097656 277.851562 C 170.097656 274.6875 172.679688 272.101562 175.84375 272.101562 C 179.007812 272.101562 181.589844 274.6875 181.589844 277.851562 L 181.589844 297.722656 C 181.589844 300.886719 179.007812 303.472656 175.84375 303.472656 " fill-opacity="1" fill-rule="nonzero"/><path fill="#100f0d" d="M 93.332031 126.128906 C 94.914062 123.390625 93.964844 119.855469 91.226562 118.273438 L 74.03125 108.339844 C 71.292969 106.757812 67.757812 107.707031 66.179688 110.445312 C 64.601562 113.183594 65.546875 116.71875 68.285156 118.300781 L 85.476562 128.234375 C 88.21875 129.816406 91.75 128.867188 93.332031 126.128906 " fill-opacity="1" fill-rule="nonzero"/><path fill="#100f0d" d="M 127.894531 89.640625 C 130.632812 88.058594 131.578125 84.523438 130 81.785156 L 120.070312 64.574219 C 118.488281 61.835938 114.957031 60.890625 112.21875 62.472656 C 109.480469 64.054688 108.535156 67.585938 110.113281 70.328125 L 120.042969 87.535156 C 121.621094 90.273438 125.15625 91.222656 127.894531 89.640625 " fill-opacity="1" fill-rule="nonzero"/><path fill="#100f0d" d="M 47.636719 174.328125 C 47.636719 177.492188 50.222656 180.078125 53.386719 180.078125 L 73.242188 180.078125 C 76.402344 180.078125 78.988281 177.492188 78.988281 174.328125 C 78.988281 171.164062 76.402344 168.574219 73.242188 168.574219 L 53.386719 168.574219 C 50.222656 168.574219 47.636719 171.164062 47.636719 174.328125 " fill-opacity="1" fill-rule="nonzero"/><path fill="#100f0d" d="M 128.527344 257.75 C 125.792969 256.167969 122.261719 257.113281 120.679688 259.855469 L 110.75 277.0625 C 109.167969 279.800781 110.117188 283.335938 112.855469 284.917969 C 115.589844 286.5 119.128906 285.550781 120.703125 282.8125 L 130.632812 265.605469 C 132.214844 262.867188 131.265625 259.332031 128.527344 257.75 " fill-opacity="1" fill-rule="nonzero"/><path fill="#100f0d" d="M 92.0625 223.164062 C 90.484375 220.421875 86.949219 219.476562 84.210938 221.058594 L 67.015625 230.992188 C 64.277344 232.574219 63.332031 236.109375 64.914062 238.847656 C 66.496094 241.585938 70.027344 242.535156 72.761719 240.953125 L 89.960938 231.019531 C 92.695312 229.4375 93.644531 225.902344 92.0625 223.164062 " fill-opacity="1" fill-rule="nonzero"/><path fill="#100f0d" d="M 256.558594 183.261719 L 175.523438 183.261719 C 171.304688 183.261719 167.886719 179.839844 167.886719 175.617188 L 167.886719 123.117188 C 167.886719 118.898438 171.304688 115.476562 175.523438 115.476562 C 179.742188 115.476562 183.160156 118.898438 183.160156 123.117188 L 183.160156 167.976562 L 256.558594 167.976562 C 260.777344 167.976562 264.195312 171.398438 264.195312 175.617188 C 264.195312 179.839844 260.777344 183.261719 256.558594 183.261719 " fill-opacity="1" fill-rule="nonzero"/><g clip-path="url(#id1)"><path fill="#100f0d" d="M 57.316406 71.964844 C 57.3125 71.964844 57.3125 71.96875 57.3125 71.972656 L 59.578125 73.671875 C 61.867188 70.898438 63.863281 68.972656 65.125 67.585938 C 66.402344 66.238281 67.070312 65.53125 67.105469 65.492188 C 67.191406 65.40625 67.898438 64.738281 69.210938 63.5 C 70.625 62.214844 72.632812 60.121094 75.464844 57.796875 C 80.984375 52.972656 89.535156 46.152344 101.554688 39.410156 C 103.0625 38.578125 104.609375 37.726562 106.199219 36.847656 C 107.828125 36.050781 109.496094 35.226562 111.203125 34.390625 C 112.890625 33.511719 114.691406 32.773438 116.519531 31.980469 C 118.351562 31.207031 120.195312 30.34375 122.15625 29.65625 C 129.871094 26.601562 138.5 24.011719 147.890625 22.089844 C 166.640625 18.25 188.679688 17.296875 211.832031 21.945312 C 223.382812 24.292969 235.15625 28.015625 246.722656 33.265625 C 258.300781 38.488281 269.535156 45.46875 280.089844 53.859375 C 281.445312 54.867188 282.703125 56 283.992188 57.109375 C 285.269531 58.21875 286.558594 59.335938 287.847656 60.457031 C 289.082031 61.640625 290.324219 62.824219 291.566406 64.011719 L 293.433594 65.800781 C 293.976562 66.335938 294.617188 67.042969 295.207031 67.660156 C 296.410156 68.929688 297.621094 70.210938 298.828125 71.492188 C 300.015625 72.78125 301.09375 74.121094 302.238281 75.441406 C 304.550781 78.027344 306.632812 80.882812 308.804688 83.675781 C 312.949219 89.40625 316.949219 95.363281 320.355469 101.734375 C 322.175781 104.859375 323.664062 108.171875 325.300781 111.425781 C 326.050781 113.082031 326.75 114.773438 327.480469 116.449219 L 328.570312 118.976562 L 329.53125 121.554688 C 334.8125 135.273438 338.164062 149.984375 339.472656 165.046875 C 340.152344 172.578125 340.152344 180.199219 339.789062 187.828125 C 339.378906 195.464844 338.296875 203.082031 336.824219 210.644531 C 335.3125 218.207031 333.125 225.644531 330.550781 232.957031 C 327.949219 240.269531 324.671875 247.339844 321.042969 254.230469 C 317.378906 261.109375 313.074219 267.644531 308.46875 273.941406 C 303.796875 280.207031 298.585938 286.050781 293.128906 291.648438 L 288.875 295.722656 C 287.449219 297.140625 285.976562 298.386719 284.507812 299.648438 L 282.308594 301.546875 C 281.582031 302.183594 280.84375 302.816406 280.0625 303.402344 L 275.441406 307.007812 C 269.140625 311.617188 262.617188 315.921875 255.738281 319.585938 C 248.855469 323.21875 241.785156 326.5 234.476562 329.101562 C 227.171875 331.675781 219.738281 333.867188 212.179688 335.375 C 204.625 336.851562 197.007812 337.933594 189.382812 338.34375 C 181.753906 338.707031 174.136719 338.707031 166.609375 338.03125 C 151.558594 336.722656 136.855469 333.363281 123.148438 328.082031 L 120.566406 327.117188 L 118.046875 326.03125 C 116.371094 325.296875 114.683594 324.597656 113.027344 323.84375 C 109.769531 322.210938 106.457031 320.71875 103.339844 318.894531 C 96.972656 315.488281 91.019531 311.488281 85.292969 307.339844 C 82.5 305.167969 79.65625 303.089844 77.042969 300.75 C 75.722656 299.601562 74.359375 298.503906 73.085938 297.324219 C 71.820312 296.128906 70.558594 294.933594 69.300781 293.746094 C 68.691406 293.160156 68.003906 292.53125 67.460938 291.992188 L 65.65625 290.097656 C 64.449219 288.839844 63.253906 287.585938 62.054688 286.332031 C 60.945312 285.046875 59.832031 283.769531 58.730469 282.492188 C 57.628906 281.210938 56.503906 279.964844 55.492188 278.605469 C 47.113281 268.042969 40.140625 256.796875 34.914062 245.214844 C 29.671875 233.636719 25.953125 221.855469 23.601562 210.296875 C 18.960938 187.128906 19.910156 165.070312 23.75 146.316406 C 25.550781 137.503906 27.945312 129.367188 30.75 122.023438 L 48.210938 129.578125 L 41.042969 97.808594 L 10.320312 113.179688 L 27.273438 120.515625 C 26.648438 122.070312 26.03125 123.628906 25.394531 125.234375 C 24.644531 127.316406 23.875 129.445312 23.097656 131.605469 C 22.367188 133.789062 21.722656 136.039062 21.011719 138.316406 C 20.640625 139.457031 20.339844 140.621094 20.046875 141.800781 C 19.75 142.976562 19.449219 144.160156 19.144531 145.359375 C 16.871094 154.964844 15.101562 165.398438 14.417969 176.558594 C 14.035156 182.136719 14.082031 187.878906 14.207031 193.777344 C 14.277344 196.726562 14.550781 199.699219 14.71875 202.722656 C 15.03125 205.730469 15.355469 208.78125 15.761719 211.855469 C 16.007812 213.386719 16.257812 214.921875 16.507812 216.472656 C 16.75 218.019531 17.003906 219.578125 17.355469 221.125 C 17.992188 224.234375 18.574219 227.402344 19.4375 230.53125 C 19.84375 232.109375 20.246094 233.691406 20.65625 235.285156 C 21.136719 236.855469 21.621094 238.433594 22.105469 240.015625 C 23.015625 243.222656 24.25 246.335938 25.386719 249.539062 C 30.082031 262.28125 36.675781 274.914062 44.957031 287.015625 C 45.933594 288.542969 47.113281 290.058594 48.257812 291.589844 C 49.40625 293.109375 50.5625 294.636719 51.722656 296.164062 C 52.824219 297.507812 53.925781 298.851562 55.03125 300.203125 L 56.695312 302.234375 L 58.8125 304.550781 C 60.09375 305.949219 61.386719 307.355469 62.675781 308.757812 C 63.984375 310.148438 65.386719 311.460938 66.746094 312.824219 C 69.449219 315.589844 72.40625 318.101562 75.328125 320.714844 C 81.328125 325.746094 87.636719 330.640625 94.46875 334.9375 C 97.816406 337.207031 101.382812 339.140625 104.917969 341.214844 C 106.714844 342.199219 108.554688 343.101562 110.390625 344.039062 L 113.152344 345.429688 L 115.980469 346.699219 C 123.496094 350.207031 131.402344 353.042969 139.519531 355.472656 C 141.566406 356.027344 143.613281 356.589844 145.667969 357.148438 C 147.738281 357.640625 149.824219 358.085938 151.914062 358.550781 C 154 359.050781 156.113281 359.414062 158.234375 359.769531 C 160.351562 360.109375 162.46875 360.558594 164.617188 360.792969 C 181.738281 363.082031 199.535156 362.953125 217.125 359.976562 C 225.925781 358.511719 234.632812 356.265625 243.234375 353.539062 L 249.617188 351.269531 C 251.738281 350.480469 253.808594 349.574219 255.910156 348.71875 C 256.953125 348.28125 258.007812 347.863281 259.042969 347.402344 L 262.125 345.953125 C 264.164062 344.960938 266.257812 344.0625 268.253906 342.972656 L 274.277344 339.757812 C 276.273438 338.660156 278.195312 337.441406 280.164062 336.28125 L 283.070312 334.476562 L 285.894531 332.542969 C 287.757812 331.234375 289.679688 329.988281 291.5 328.613281 L 296.9375 324.453125 C 297.390625 324.09375 297.839844 323.769531 298.300781 323.390625 L 299.691406 322.214844 L 302.472656 319.851562 L 305.238281 317.472656 C 305.457031 317.285156 305.726562 317.058594 305.902344 316.890625 L 306.441406 316.382812 L 307.53125 315.367188 L 312.320312 310.855469 C 313.917969 309.222656 315.464844 307.542969 317.027344 305.882812 C 318.617188 304.246094 320.085938 302.496094 321.558594 300.75 C 323.015625 298.992188 324.558594 297.308594 325.929688 295.476562 L 330.085938 290.03125 C 335.425781 282.621094 340.398438 274.933594 344.476562 266.789062 C 348.558594 258.652344 352.191406 250.320312 355.042969 241.742188 C 355.835938 239.628906 356.367188 237.429688 357.019531 235.277344 L 357.953125 232.03125 C 358.246094 230.941406 358.488281 229.847656 358.75 228.757812 C 359.257812 226.570312 359.824219 224.398438 360.265625 222.203125 L 361.5 215.613281 C 364.546875 198.007812 364.589844 180.183594 362.363281 163.039062 C 362.125 160.890625 361.675781 158.769531 361.335938 156.644531 C 360.980469 154.523438 360.617188 152.40625 360.117188 150.320312 C 359.648438 148.226562 359.203125 146.136719 358.710938 144.066406 C 358.152344 142.007812 357.589844 139.957031 357.03125 137.90625 C 354.636719 129.773438 351.773438 121.855469 348.273438 114.332031 L 347 111.5 L 345.605469 108.734375 C 344.664062 106.898438 343.761719 105.054688 342.796875 103.25 C 340.722656 99.710938 338.785156 96.140625 336.511719 92.785156 C 332.210938 85.949219 327.3125 79.625 322.28125 73.625 C 319.65625 70.6875 317.195312 67.78125 314.285156 64.917969 L 312.183594 62.78125 L 311.132812 61.722656 L 310.613281 61.195312 L 310.125 60.746094 C 308.816406 59.558594 307.507812 58.375 306.207031 57.195312 L 304.011719 55.183594 L 301.832031 53.375 C 300.386719 52.179688 298.945312 50.984375 297.507812 49.792969 C 296.03125 48.65625 294.527344 47.554688 293.050781 46.445312 C 291.566406 45.34375 290.117188 44.21875 288.566406 43.222656 C 276.460938 34.9375 263.832031 28.328125 251.082031 23.652344 C 247.878906 22.519531 244.761719 21.28125 241.558594 20.371094 C 239.972656 19.886719 238.398438 19.402344 236.828125 18.921875 C 235.234375 18.511719 233.652344 18.105469 232.074219 17.703125 C 225.789062 16.078125 219.515625 14.996094 213.398438 14.039062 C 201.117188 12.277344 189.253906 12.101562 178.113281 12.714844 C 166.960938 13.390625 156.53125 15.1875 146.933594 17.460938 C 145.738281 17.765625 144.550781 18.070312 143.375 18.367188 C 142.195312 18.660156 141.035156 18.960938 139.894531 19.332031 C 137.617188 20.042969 135.367188 20.6875 133.1875 21.421875 C 131.027344 22.199219 128.902344 22.964844 126.820312 23.714844 C 124.765625 24.539062 122.753906 25.34375 120.78125 26.132812 C 118.789062 26.882812 116.917969 27.808594 115.066406 28.644531 C 113.214844 29.5 111.394531 30.300781 109.6875 31.234375 C 107.964844 32.132812 106.28125 33.011719 104.636719 33.867188 C 103.039062 34.800781 101.476562 35.710938 99.957031 36.59375 C 99.199219 37.039062 98.453125 37.480469 97.714844 37.910156 C 96.984375 38.355469 96.292969 38.832031 95.589844 39.285156 C 94.207031 40.203125 92.84375 41.0625 91.523438 41.898438 C 88.910156 43.621094 86.5625 45.375 84.324219 46.929688 C 82.152344 48.585938 80.1875 50.167969 78.367188 51.589844 C 76.554688 53.023438 75.011719 54.472656 73.578125 55.695312 C 70.667969 58.132812 68.734375 60.195312 67.320312 61.511719 C 65.929688 62.847656 65.21875 63.539062 65.21875 63.539062 L 65.191406 63.5625 C 65.191406 63.5625 64.5 64.28125 63.152344 65.679688 C 61.832031 67.101562 59.730469 69.082031 57.316406 71.964844 " fill-opacity="1" fill-rule="nonzero"/></g></svg>